<?xml version="1.0" encoding="UTF-8"?>
<svg width="72px" height="26px" viewBox="0 0 72 26" version="1.1" xmlns="http://www.w3.org/2000/svg" xmlns:xlink="http://www.w3.org/1999/xlink">
    <title>ESA_logo</title>
    <g id="Page-1" stroke="none" stroke-width="1" fill="none" fill-rule="evenodd">
        <g id="Desktop-HD" transform="translate(-577.000000, -1372.000000)" fill="#192D67" fill-rule="nonzero">
            <g id="ESA_logo" transform="translate(577.000000, 1372.000000)">
                <path d="M17.1593954,12.0821749 L22.2901638,12.0821749 C22.2901638,12.0821749 22.4931653,11.2784715 21.5794105,10.0735591 C19.7745117,8.13007586 17.7471076,9.41898863 17.7471076,9.41898863 C16.7529877,9.96830353 15.4762323,12.2509374 16.2252491,15.5265307 C17.1593954,18.8028109 20.7484751,19.4769973 22.9785543,18.716464 C24.454558,18.2133119 25.3055651,17.1040851 25.7150799,16.4082763 C25.8467698,15.8453581 25.940764,15.2824331 26,14.7228273 L17.1593954,14.7228273 L17.1593954,12.0821749 Z" id="path2425"></path>
                <g id="g2449" transform="translate(-0.000000, 0.000000)">
                    <path d="M12.3683162,0.0189457398 C6.806912,0.313260109 1.84520726,4.14268903 0.4042644,9.7960145 C-1.36985153,16.7545324 2.86066401,23.8323063 9.85397958,25.5977589 C14.8227312,26.8518053 19.861207,25.0906021 22.9913885,21.4701265 C21.6150406,21.7974819 20.0042761,21.8193091 18.2560545,21.2199669 C12.401425,19.2085908 11.3285542,13.8181597 12.7873723,10.046174 C14.2442661,6.27393492 19.3456004,4.51564689 22.8866245,7.04425954 C25.9216165,9.20989403 26.0883405,13.0683615 26.0714509,14.1321132 C26.6299755,7.88983882 22.588223,1.98602026 16.2864908,0.394185053 C14.9752542,0.0633473908 13.6517208,-0.048970908 12.3683162,0.0189457398 Z M5.99866341,11.4845914 C6.92713752,11.4845914 7.67488783,12.2291463 7.67488783,13.1523217 C7.67488783,14.0760775 6.92713752,14.820052 5.99866341,14.820052 C5.07085307,14.820052 4.30148618,14.0760775 4.30148618,13.1523217 C4.30148618,12.2291463 5.07085307,11.4845914 5.99866341,11.4845914 Z" id="path2423"></path>
                    <g id="g2444" transform="translate(29.059580, 5.839924)">
                        <path d="M36.0678998,0.0369244413 C35.0280573,0.0776170601 33.9654115,0.247972373 33.0926015,0.578936782 C31.2634249,1.32357835 30.347784,3.09487468 30.347784,4.95672876 L33.6583272,4.95672876 C33.5748579,4.00562219 34.2927782,3.14107081 34.9574011,2.89291254 C35.2493994,2.76974733 35.6514452,2.68444626 36.0678998,2.68444626 C36.898811,2.64366692 37.74865,2.85513512 38.3308028,3.39323163 C38.7056066,3.76488199 38.8114635,4.25211272 38.6870005,4.78995574 C38.4781429,5.65867644 37.5231174,5.9579473 36.0678998,6.16583322 C35.5686397,6.24788555 34.9927695,6.29191363 34.3707226,6.3742995 C32.6251025,6.58117811 30.1326439,7.4378111 29.5515774,9.9599196 C29.3436451,10.9533865 29.5022159,12.7846344 31.0392265,13.9833189 C32.0787405,14.7699539 33.5421649,15.1305439 34.6640619,15.0881902 C35.1633287,15.0881902 35.6724785,15.0461701 36.0888526,14.9631104 C37.2511533,14.7155592 38.1507763,14.1849475 39.0222454,13.4829998 C39.064151,13.6898384 39.2753552,14.4644191 39.4413015,14.6712576 L42.9404199,14.6712576 C42.4012657,13.5963521 42.4794582,12.0370843 42.4794582,11.1690241 L42.4794582,6.70784556 C42.4385584,5.5498537 42.4355411,4.38544442 42.186119,3.30984511 C41.9356106,2.23399231 40.9892076,0.45160224 37.9117467,0.0786176982 C37.3302711,0.0379250794 36.6909524,0.0369244413 36.0678998,0.0369244413 Z M38.8965285,7.47917081 C38.8965285,7.81012855 38.9367579,10.1709675 38.7289061,10.6270117 C38.3540218,11.6188109 37.3142598,12.1934374 36.0678998,12.3155886 C35.8197381,12.3563079 35.5394734,12.3979878 35.2507404,12.3572819 C34.4191655,12.3572819 33.7191742,11.9562728 33.4278464,11.3357971 C33.0948677,10.7152346 33.3028,10.0827446 33.5116576,9.70976006 C34.0102539,8.84170645 34.8814682,8.68568695 36.0888526,8.43811572 C36.461484,8.3974231 36.8689675,8.31178182 37.3250681,8.18795618 C38.240119,7.98115763 38.439174,7.81012855 38.8965285,7.47917081 Z" id="path2417"></path>
                        <path d="M11.7537684,2.06649882 C10.2984704,0.452889727 8.05325493,-0.251059223 5.7671329,0.0798985151 C3.68853416,0.411196471 2.19208145,1.56943515 1.15257423,3.22382359 C0.611737067,4.17526371 0.238193807,5.25086302 0.071241855,6.28502256 C-0.261408234,8.8087988 0.445455605,13.026969 4.89465809,14.6816643 C6.9722578,15.4682993 9.59227703,15.1783944 11.5874065,13.7305377 C12.7097192,12.90319 13.8336277,11.0416428 13.9155146,9.88365096 L10.2160001,9.88365096 C10.0906185,10.3803878 9.80021602,11.0416428 9.13466776,11.5383729 C7.63746411,12.6132851 5.93307912,11.9113441 5.18473208,11.372267 C4.06274791,10.544906 3.68853416,9.18012228 3.64696379,7.23612914 C3.64696379,6.20263669 3.93770156,4.54824825 4.81118211,3.76157988 C5.7671329,2.97533177 6.93127076,2.76944714 8.05325493,3.09974445 C9.26004935,3.47239545 10.1740945,4.79582615 10.0906185,5.9948375 L4.85275248,5.9948375 L4.85275248,8.60192019 L13.9155146,8.60192019 C13.9989906,7.64981297 13.8336277,6.74039965 13.6666757,5.8713454 C13.375938,4.58960796 12.5859334,3.01702503 11.7537684,2.06649882 Z" id="path2415"></path>
                        <path d="M22.480599,5.91303866 C21.3576158,5.70624011 20.0693502,5.66454685 19.4048143,4.92090592 C19.1133994,4.58960796 19.1133994,4.01049196 19.2794327,3.679194 C19.737042,2.76944714 20.8600252,2.47951556 21.940439,2.56164794 C22.8963898,2.56164794 23.7698703,3.05871829 24.1437489,3.88607928 C24.3107008,4.21729051 24.3526064,4.58960796 24.393171,4.96159854 L27.4689624,4.96159854 C27.510868,3.76157988 27.0122717,2.52087527 26.2641727,1.7346205 C25.3075515,0.742407704 23.062336,-0.291751842 20.2782077,0.121925318 C18.7800855,0.328143503 16.7850432,1.19777812 16.1188244,3.14077062 C15.5366717,4.96159854 16.1188244,6.61531988 17.2413919,7.48437413 C18.6557096,8.56122757 21.3167159,8.84949141 22.3977935,9.09865032 C23.6450721,9.34622821 24.2681247,9.51233415 24.4759765,10.2142818 C24.6014453,10.6703193 24.5595397,11.2077488 24.2681247,11.5807333 C23.4781201,12.6132851 21.8568759,12.6963448 20.5686169,12.3233936 C19.4876198,11.9943971 19.0299234,11.1246958 18.8219911,9.96512292 L15.5792478,9.96512292 C15.5792478,11.0416428 15.9115626,11.7875318 16.4527283,12.6556322 C17.1589217,13.7728847 18.4062874,14.6816643 20.2357188,14.9715625 C22.2307611,15.3038011 24.2681247,15.0546288 25.4745034,14.3933938 C26.1806968,13.9780889 26.7218692,13.4422672 27.1792237,12.8624707 C27.8441819,12.0351164 28.4265894,9.96512292 27.3864922,8.14596273 C26.472447,6.57429372 24.393171,6.2439964 22.480599,5.91303866" id="path23"></path>
                    </g>
                </g>
            </g>
        </g>
    </g>
</svg>