<?xml version="1.0" encoding="UTF-8"?>
<svg width="66px" height="40px" viewBox="0 0 66 40" version="1.1" xmlns="http://www.w3.org/2000/svg" xmlns:xlink="http://www.w3.org/1999/xlink">
    <title>Jaxa_logo</title>
    <g id="Page-1" stroke="none" stroke-width="1" fill="none" fill-rule="evenodd">
        <g id="Desktop-HD" transform="translate(-232.000000, -1963.000000)" fill="#0060B0" fill-rule="nonzero">
            <g id="Jaxa_logo" transform="translate(232.000000, 1963.000000)">
                <path d="M60.4478673,5.01960784 C62.2980569,5.01960784 64.1498104,5.01960784 66,5.01960784 C64.9990521,5.27843137 64.8379621,6.26352941 64.9052133,7.52941176 C65.1632701,12.3984314 65.2399052,18.8611765 65.4526066,23.6862745 C63.9668246,23.6862745 62.4810427,23.6862745 60.9952607,23.6862745 C60.9764929,22.4705882 60.9733649,21.0415686 60.9170616,19.7647059 C59.1700948,19.7647059 57.4246919,19.7647059 55.6777251,19.7647059 C54.7862559,21.014902 54.0715166,22.4407843 53.1753555,23.6862745 C50.0208057,23.6862745 46.8678199,23.6862745 43.7132701,23.6862745 C43.3191469,21.8870588 43.0266825,19.9827451 42.6184834,18.1960784 C41.1952607,19.7537255 39.6922749,21.9372549 38.1611374,23.6862745 C36.5705687,23.6862745 34.7954502,23.6862745 33.2048815,23.6862745 C33.2048815,23.6862745 33.6179289,23.187451 33.7819905,22.9803922 C35.0832227,21.3396078 36.5736967,19.4337255 37.8483412,17.7254902 C35.4241706,18.7717647 33.1829858,20.0015686 30.8886256,21.1764706 C30.3318483,25.7160784 29.7563033,30.2384314 29.2464455,34.8235294 C27.3118009,31.7709804 25.3020853,28.7937255 22.8341232,26.2745098 C17.4446445,29.974902 12.4070616,34.1003922 8.28909953,39.1372549 C8.03729858,39.4447059 7.7964455,39.9215686 7.3507109,40 C11.0745498,34.0109804 15.6366825,28.8611765 21.1137441,24.627451 C20.3192417,23.8619608 19.471564,23.2031373 18.5722749,22.5160784 C18.0890047,22.9066667 16.3623697,25.254902 16.3045024,25.2737255 C16.3045024,25.2737255 16.2841706,25.254902 16.1090047,25.254902 C16.7142654,24.1898039 17.4759242,23.2219608 18.1937915,22.2682353 C17.3539336,21.6141176 16.2216114,21.065098 15.2488152,20.4705882 C13.0654976,23.4290196 7.93876777,25.5231373 2.81516588,23.9215686 L2.95279621,23.4211765 C2.95279621,23.4211765 3.77388626,23.528 4.14454976,23.5294118 C7.55246445,23.5435294 9.92033175,21.2188235 11.3388626,18.9803922 C7.95909953,17.8211765 4.19303318,17.0509804 0,16.7058824 L0.143886256,16.4439216 C3.76606635,16.4047059 8.7536019,17.2 11.8862559,17.9607843 C11.8862559,17.9607843 12.455545,17.0352941 12.6682464,16.5490196 C14.1430806,13.1858824 15.1643602,8.94745098 16.1872038,5.09803922 C18.0373934,5.09803922 19.8891469,5.09803922 21.7393365,5.09803922 C22.0052133,5.12784314 21.5798104,5.34117647 21.5047393,5.41176471 C20.6899052,6.18352941 20.4537441,7.95607843 20.0189573,9.41176471 C18.9804739,12.8941176 17.8403318,16.7623529 16.0308057,19.372549 C16.997346,19.8933333 18.0890047,20.2886275 19.0023697,20.8627451 C20.4725118,18.8862745 21.8566351,16.8235294 23.2251185,14.745098 C23.0687204,14.7639216 19.9595261,14.9019608 19.2369668,14.9803922 C19.3214218,14.6870588 19.4309005,14.3419608 19.471564,14.0392157 C20.9135545,13.945098 22.3508531,13.8431373 23.8507109,13.8039216 C27.1053555,9.27843137 30.2129858,4.60392157 33.3909953,0 C33.0046919,4.26666667 32.3603318,8.92705882 31.8536019,13.3333333 C34.6155924,13.1764706 37.3572512,13.0243137 40.1161137,12.8627451 C39.8424171,11.4321569 38.6303318,6.45019608 38.3175355,5.01960784 C40.4805213,5.01960784 42.6450711,5.01960784 44.8080569,5.01960784 C42.8108531,5.49490196 44.4045498,8.87843137 44.4170616,10.6666667 C45.2037441,9.83843137 45.7370616,8.79529412 46.3720379,7.84313725 C47.0117062,6.88627451 47.7483412,6 48.3270142,5.01960784 C50.3601896,5.01960784 52.3933649,5.01960784 54.4265403,5.01960784 C53.2081991,5.41960784 52.5481991,6.34196078 51.7677725,7.37254902 C50.5556872,8.97568627 49.2904265,10.7560784 48.0924171,12.3921569 C50.2554028,12.3388235 52.2713744,12.1396078 54.4265403,12.0784314 C51.7083412,12.7513725 49.1277725,13.4117647 46.528436,14.3529412 C47.2525592,17.3129412 48.0533175,20.1976471 48.7962085,23.1372549 C52.7279005,17.1466667 56.5175829,11.0133333 60.4478673,5.01960784 Z M57.5545024,16.3921569 C58.7009005,16.3921569 59.8488626,16.3921569 60.9952607,16.3921569 C60.9764929,15.9215686 60.965545,12.4015686 60.9170616,10.745098 C59.7908389,12.6227451 58.6477251,14.4831373 57.5545024,16.3921569 Z M31.3578199,18.1176471 C34.6359242,16.4141176 38.3081517,15.1011765 42.1492891,13.9607843 C38.6725592,14.134902 35.1911374,14.2101961 31.7363033,14.4047059 C31.6049289,15.6470588 31.4624502,16.9019608 31.3578199,18.1176471 Z M28.542654,13.4901961 C28.7256398,11.9090196 28.8429384,10.3403922 29.0118483,8.94117647 C27.804455,10.5552941 26.5345024,12.105098 25.3364929,13.7254902 C26.5094787,13.6470588 27.5651659,13.5560784 28.542654,13.4901961 Z M27.6824645,20.0784314 C27.9170616,18.1694118 28.1156872,16.3843137 28.3862559,14.5882353 C27.06,14.5913725 25.7681517,14.6290196 24.5545024,14.745098 C22.8466351,16.8501961 21.201327,19.0164706 19.549763,21.1764706 C20.7227488,21.7647059 21.7455924,22.5615686 22.7559242,23.2941176 C24.3683886,22.1929412 25.9697488,21.0807843 27.6824645,20.0784314 Z M26.6658768,27.5294118 C26.812891,26.1882353 27.0959716,23.7380392 27.1350711,23.372549 C26.2748815,24 25.330237,24.4392157 24.5545024,25.0980392 C25.3832559,25.7835294 25.9542654,26.7278431 26.6658768,27.5294118 Z" id="Shape"></path>
            </g>
        </g>
    </g>
</svg>