<?xml version="1.0" encoding="UTF-8"?>
<svg width="51px" height="42px" viewBox="0 0 51 42" version="1.1" xmlns="http://www.w3.org/2000/svg" xmlns:xlink="http://www.w3.org/1999/xlink">
    <title>NASA_logo</title>
    <g id="Page-1" stroke="none" stroke-width="1" fill="none" fill-rule="evenodd">
        <g id="Desktop-HD" transform="translate(-229.000000, -1382.000000)" fill-rule="nonzero">
            <g id="NASA_logo" transform="translate(229.000000, 1382.000000)">
                <circle id="Oval" fill="#0B3D91" cx="24" cy="21" r="21"></circle>
                <g id="Group" transform="translate(0.000000, 1.000000)">
                    <ellipse id="Oval" fill="#FFFFFF" cx="22.4743736" cy="2.5093933" rx="1" ry="1"></ellipse>
                    <ellipse id="Oval" fill="#FFFFFF" cx="24.8761595" cy="2.82656962" rx="1" ry="1"></ellipse>
                    <ellipse id="Oval" fill="#FFFFFF" cx="28.026554" cy="7.14016753" rx="1" ry="1"></ellipse>
                    <ellipse id="Oval" fill="#FFFFFF" cx="10.7461724" cy="29.3425098" rx="1" ry="1"></ellipse>
                    <ellipse id="Oval" fill="#FFFFFF" cx="11.3544168" cy="31.2455677" rx="1" ry="1"></ellipse>
                    <ellipse id="Oval" fill="#FFFFFF" cx="8.45355854" cy="29.6279684" rx="1" ry="1"></ellipse>
                    <ellipse id="Oval" fill="#FFFFFF" cx="17.9671261" cy="33.36642" rx="1" ry="1"></ellipse>
                    <ellipse id="Oval" fill="#FFFFFF" cx="32.8883509" cy="30.2147446" rx="1" ry="1"></ellipse>
                    <ellipse id="Oval" fill="#FFFFFF" cx="37.2245622" cy="25.4253822" rx="1" ry="1"></ellipse>
                    <ellipse id="Oval" fill="#FFFFFF" cx="15.9708365" cy="8.53151431" rx="1" ry="1"></ellipse>
                    <ellipse id="Oval" fill="#FFFFFF" cx="20.7432162" cy="4.96750976" rx="1" ry="1"></ellipse>
                    <ellipse id="Oval" fill="#FFFFFF" cx="20.2249088" cy="4.61861581" rx="1" ry="1"></ellipse>
                    <ellipse id="Oval" fill="#FFFFFF" cx="19.7570284" cy="4.26972186" rx="1" ry="1"></ellipse>
                    <ellipse id="Oval" fill="#FFFFFF" cx="16.7194451" cy="9.45185426" rx="1" ry="1"></ellipse>
                    <ellipse id="Oval" fill="#FFFFFF" cx="23.7490877" cy="0.178147365" rx="1" ry="1"></ellipse>
                    <ellipse id="Oval" fill="#FFFFFF" cx="24.9037125" cy="5.31640371" rx="1" ry="1"></ellipse>
                    <ellipse id="Oval" fill="#FFFFFF" cx="23.0826181" cy="4.31306929" rx="1" ry="1"></ellipse>
                    <ellipse id="Oval" fill="#FFFFFF" cx="19.9634156" cy="5.67745608" rx="1" ry="1"></ellipse>
                    <ellipse id="Oval" fill="#FFFFFF" cx="33.7190985" cy="34.9211126" rx="1" ry="1"></ellipse>
                    <ellipse id="Oval" fill="#FFFFFF" cx="10.4498481" cy="30.5477798" rx="1" ry="1"></ellipse>
                    <ellipse id="Oval" fill="#FFFFFF" cx="22.6459297" cy="32.8473081" rx="1" ry="1"></ellipse>
                    <ellipse id="Oval" fill="#FFFFFF" cx="14.07956" cy="30.4050504" rx="1" ry="1"></ellipse>
                    <ellipse id="Oval" fill="#FFFFFF" cx="15.5965322" cy="32.9229018" rx="1" ry="1"></ellipse>
                    <ellipse id="Oval" fill="#FFFFFF" cx="26.763277" cy="31.3370202" rx="1" ry="1"></ellipse>
                    <ellipse id="Oval" fill="#FFFFFF" cx="32.9195429" cy="27.8042046" rx="1" ry="1"></ellipse>
                    <ellipse id="Oval" fill="#FFFFFF" cx="37.5869095" cy="29.9726334" rx="1" ry="1"></ellipse>
                    <ellipse id="Oval" fill="#FFFFFF" cx="39.1777028" cy="31.0076854" rx="1" ry="1"></ellipse>
                    <ellipse id="Oval" fill="#FFFFFF" cx="39.4391959" cy="28.1848162" rx="1" ry="1"></ellipse>
                    <ellipse id="Oval" fill="#FFFFFF" cx="16.2318097" cy="24.1883946" rx="1" ry="1"></ellipse>
                    <ellipse id="Oval" fill="#FFFFFF" cx="16.2983527" cy="28.2799691" rx="1" ry="1"></ellipse>
                    <ellipse id="Oval" fill="#FFFFFF" cx="17.7019938" cy="31.2931441" rx="1" ry="1"></ellipse>
                    <ellipse id="Oval" fill="#FFFFFF" cx="34.5144951" cy="28.1530986" rx="1" ry="1"></ellipse>
                    <ellipse id="Oval" fill="#FFFFFF" cx="40.5657479" cy="27.8042046" rx="1" ry="1"></ellipse>
                    <ellipse id="Oval" fill="#FFFFFF" cx="37.5713135" cy="26.5037817" rx="1" ry="1"></ellipse>
                    <ellipse id="Oval" fill="#FFFFFF" cx="34.5144951" cy="26.6306522" rx="1" ry="1"></ellipse>
                    <path d="M28.2090273,2.36032043 L28.7907586,2.30375732 L28.2100671,2.27045381 C28.1918717,2.15627033 28.1019347,2.06693234 27.9886037,2.05213077 L27.9329779,1.46324008 L27.8997064,2.05688842 C27.7946933,2.08067664 27.7141139,2.17001464 27.7011172,2.28102635 L27.1063893,2.33600358 L27.7052761,2.36877846 C27.7271106,2.47080351 27.8082098,2.55062622 27.9101038,2.5696568 L27.9641699,3.17652082 L27.9958818,2.57071405 C28.1034943,2.5522121 28.1887525,2.46816038 28.2090273,2.36032043 Z" id="Path" fill="#FFFFFF"></path>
                    <path d="M18.3908177,8.94595804 L18.972549,8.88939493 L18.3918575,8.85609141 C18.374182,8.74190794 18.2837251,8.65256994 18.1703941,8.63776838 L18.1147683,8.04887768 L18.0820167,8.64252602 C17.9764837,8.66631425 17.8959043,8.75565224 17.8829076,8.86666396 L17.2881796,8.92164118 L17.8870665,8.95441607 C17.9089009,9.05644112 17.9900002,9.13626383 18.0918942,9.1552944 L18.1459603,9.76215843 L18.1781921,9.15635166 C18.2858046,9.13837833 18.3710628,9.05379798 18.3908177,8.94595804 Z" id="Path" fill="#FFFFFF"></path>
                    <path d="M40.1394569,26.3578806 L40.7211882,26.3013175 L40.1404966,26.268014 C40.1228211,26.1538305 40.0323643,26.0644925 39.9190333,26.049691 L39.8634075,25.4608003 L39.8306558,26.0544486 C39.7256427,26.0782368 39.6450633,26.1675748 39.6320666,26.2785865 L39.0373387,26.3335638 L39.6362256,26.3663386 C39.65806,26.4683637 39.7391592,26.5481864 39.8410532,26.567217 L39.8951194,27.174081 L39.9273511,26.5682742 C40.0339239,26.5503009 40.1191821,26.4662492 40.1394569,26.3578806 Z" id="Path" fill="#FFFFFF"></path>
                    <path d="M16.4257202,35.4618982 L17.0074514,35.4053351 L16.4267599,35.3720316 C16.4085646,35.2578481 16.3186276,35.1685101 16.2052965,35.1537085 L16.1496708,34.5653465 L16.1169191,35.1584662 C16.0113861,35.1822544 15.9308067,35.2715924 15.91781,35.3826041 L15.3230821,35.4375813 L15.921969,35.4703562 C15.9438034,35.5723813 16.0249027,35.6527326 16.1267966,35.6712345 L16.1808628,36.2780986 L16.2130945,35.6722918 C16.3201872,35.6543185 16.4059652,35.5697381 16.4257202,35.4618982 Z" id="Path" fill="#FFFFFF"></path>
                    <path d="M38.2913294,31.0214297 L38.8730607,30.9648666 L38.2923692,30.9315631 C38.2746937,30.8173796 38.1842368,30.7280416 38.0709058,30.7132401 L38.01528,30.1243494 L37.9825284,30.7174691 C37.8775152,30.7412573 37.7969358,30.8305953 37.7839392,30.941607 L37.1892112,30.9965843 L37.7880981,31.0293591 C37.8099325,31.1313842 37.8910318,31.2112069 37.9929257,31.2302375 L38.0469919,31.8371015 L38.0792237,31.2312947 C38.1857964,31.21385 38.2715745,31.1292697 38.2913294,31.0214297 Z" id="Path" fill="#FFFFFF"></path>
                    <path d="M28.6550733,14.5700228 C26.2288536,15.5289525 23.8624187,16.3847999 21.8656093,17.0202098 C17.8080467,18.3121747 6.70628529,21.8095722 0,26.218323 L0.561456443,26.4403465 C4.64761167,24.0932417 7.30361257,23.3558068 9.85667978,22.5390777 C12.63277,21.6509841 21.6072353,19.5153302 25.6710363,18.3523504 C27.0440052,17.9595804 28.6519541,17.4452261 30.3550386,16.8193315 C29.9588999,16.2574008 29.5409268,15.6938842 29.1011192,15.1314249 C28.9539969,14.9416477 28.804795,14.7545137 28.6550733,14.5700228 Z M31.6193554,18.7245039 C31.0319056,19.1278465 30.5395914,19.4497804 30.1949196,19.6527733 C28.19863,20.8263256 18.4661984,27.5821812 16.2520846,29.1363452 C14.0379707,30.6905091 7.89262196,36.5899886 6.08348454,38.3027407 L6.02110049,39 C11.8540091,33.6714379 13.6839412,32.3572707 16.0025484,30.5636386 C18.8722146,28.3434044 24.8085768,24.235971 26.8261809,22.9196893 C28.7548878,21.6615566 30.494363,20.5043917 32.0555238,19.4455514 C32.0300504,19.402204 32.0045769,19.3588565 31.9791034,19.3149805 C31.8616134,19.1188598 31.7415241,18.9222105 31.6193554,18.7245039 Z M40.737304,8.93221373 C37.8957106,10.6259353 33.4170557,12.6701366 29.0720067,14.4045625 C29.1759801,14.5340761 29.2794337,14.664647 29.3823673,14.7962752 C29.8679232,15.4179408 30.3259261,16.0438354 30.7568959,16.6702586 C34.1724226,15.3909808 37.9201443,13.6739997 40.893784,11.5959662 C39.4771462,12.9608816 34.7936637,16.5201285 31.9380339,18.5040664 C32.0851563,18.7477635 32.2275998,18.9914606 32.3653646,19.2341005 C36.6916984,16.2901757 39.6029541,14.1233328 41.2992803,12.6743656 C43.6386822,10.6761548 48.9725184,6.20396877 51,0.20933637 C47.4435893,4.8089216 43.2389044,7.44095641 40.737304,8.93221373 Z" id="Shape" fill="#FC3D21"></path>
                    <path d="M21.0213451,24.906799 C20.5612628,24.3179083 19.9249455,23.5291965 19.4471876,22.9175748 C18.808271,22.0997885 18.2171821,21.2735442 17.6754806,20.4483572 C17.4987258,20.4932905 17.3224909,20.5382238 17.1462559,20.5831571 C17.8002487,21.6208523 18.526503,22.6569616 19.3177407,23.6698113 C19.8958329,24.4098894 20.4214185,25.0056522 20.6907097,25.3762199 C20.7452957,25.451285 20.8534281,25.6172739 20.9995107,25.8382401 C21.1679476,25.7219421 21.3379442,25.6045869 21.5095003,25.4861744 C21.3436627,25.3027407 21.1799046,25.1097918 21.0213451,24.906799 Z M24.3796864,28.0066688 C24.0017431,27.6429733 23.0852174,27.0355807 22.1312613,26.1242274 C21.9207152,26.2711858 21.7080895,26.4202586 21.494944,26.5703887 C22.1109865,27.4531962 22.950052,28.5374105 23.607164,28.8535296 C24.5969909,29.3303513 24.8636827,28.472918 24.3796864,28.0066688 Z M29.3823673,14.7962752 C23.927922,7.81522446 17.2647856,3.98003416 14.3920002,6.30123617 C12.1607307,8.10385491 13.0767365,13.3721535 16.1522701,18.9063517 C16.3113494,18.8508458 16.4688691,18.7963972 16.6248293,18.7424772 C13.5207029,13.3504798 12.6712401,8.33962264 14.7756621,6.63902895 C17.4202259,4.50231783 23.8057532,8.35230969 29.102159,15.1308962 C30.1985586,16.5338728 31.1623922,17.9421357 31.9785835,19.3149805 C35.1040244,24.5748211 36.0631791,29.3314086 33.9036513,31.2730563 C33.2429002,31.8672332 31.2237365,32.1003578 28.5786528,30.8898016 C28.5417423,30.9368494 28.6010071,31.0642485 28.6472753,31.0954375 C30.9305315,32.0289932 33.1176123,32.3847593 34.22181,31.4929652 C36.8752115,29.3488533 34.8368127,21.777326 29.3823673,14.7962752 Z" id="Shape" fill="#FFFFFF"></path>
                    <path d="M5.9893886,15.624634 L9.48289535,15.624634 L12.4149457,20.6835963 C12.4149457,20.6835963 12.4149457,17.0202098 12.4149457,16.7347511 C12.4149457,16.2907043 11.8612872,15.7118575 11.6663371,15.624634 C11.9002773,15.624634 13.9433549,15.624634 14.083719,15.624634 C13.9355569,15.6642811 13.4598785,16.2510573 13.4598785,16.7347511 C13.4598785,16.9726334 13.4598785,22.2853367 13.4598785,22.5390777 C13.4598785,22.8959011 13.9667489,23.3875244 14.2084871,23.5778302 L10.8397484,23.5778302 L7.86091007,18.4950797 C7.86091007,18.4950797 7.86091007,22.2853367 7.86091007,22.4915013 C7.86091007,22.8879717 8.24301237,23.2685833 8.64071069,23.593689 L6.06736866,23.593689 C6.43387495,23.4351008 6.78478522,22.9355481 6.81597725,22.5390777 C6.84716927,22.1426074 6.81597725,17.0281392 6.81597725,16.8061158 C6.81597725,16.3224219 6.35589488,15.9259515 5.9893886,15.624634 Z" id="Path" fill="#FFFFFF"></path>
                    <path d="M37.9456178,23.5778302 L42.5932295,23.5778302 C42.3358953,23.5143949 42.0473691,23.205148 41.8914089,22.7928188 C41.7354488,22.3804896 39.2712789,15.624634 39.2712789,15.624634 L37.5042507,15.624634 C37.0030988,15.9915013 36.4660761,16.3784564 35.8926627,16.786028 C35.8911031,16.8008295 35.8895435,16.8156311 35.8869442,16.829904 C35.8100039,17.3056685 34.4271574,22.3984629 34.342939,22.6500895 C34.2259689,22.9989834 33.6255224,23.3875244 33.3837842,23.593689 L35.8869442,23.593689 C35.637408,23.3082303 35.4346598,23.030701 35.4814479,22.7135247 C35.5282359,22.3963484 35.6686,21.7619958 35.6686,21.7619958 L38.2575381,21.7619958 C38.3745082,22.0791721 38.4618458,22.3641021 38.5070743,22.6342306 C38.5616603,22.9593364 38.2341441,23.3240891 37.9456178,23.5778302 Z M35.9025402,20.7470316 L36.7759169,17.8448682 L37.9300218,20.7470316 L35.9025402,20.7470316 Z M35.5090008,15.9143217 C35.637408,15.8181116 35.766335,15.7213728 35.8947422,15.624634 L35.2163157,15.624634 C35.2838984,15.6880693 35.3956698,15.7879798 35.5090008,15.9143217 Z" id="Shape" fill="#FFFFFF"></path>
                    <path d="M17.7331859,22.7135247 C17.7799739,22.3963484 17.920338,21.7619958 17.920338,21.7619958 L20.5092761,21.7619958 C20.6262462,22.0791721 20.7135838,22.3641021 20.7588123,22.6342306 C20.8133983,22.9593364 20.485882,23.3240891 20.1973558,23.5778302 L24.2892296,23.5778302 C24.3744878,23.5196812 24.4592261,23.4615322 24.5439644,23.4039118 C24.385405,23.2611825 24.2393223,23.0470885 24.1431469,22.7928188 C23.9871868,22.3804896 21.5230169,15.624634 21.5230169,15.624634 L17.4680537,15.624634 C17.6630038,15.8070104 18.2244603,16.2986337 18.1386822,16.829904 C18.0622617,17.3056685 16.6788954,22.3984629 16.594677,22.6500895 C16.4777069,22.9989834 15.8772604,23.3875244 15.6355222,23.593689 L18.1386822,23.593689 C17.889146,23.3082303 17.6863978,23.030701 17.7331859,22.7135247 Z M19.0276549,17.8448682 L20.1817598,20.7470316 L18.1542782,20.7470316 L19.0276549,17.8448682 Z" id="Shape" fill="#FFFFFF"></path>
                    <path d="M31.8678518,19.5724219 C31.104687,20.0894193 30.2994129,20.6291477 29.4509898,21.1926643 C29.8315325,21.3803269 30.134615,21.6160947 30.1637275,21.9205839 C30.2177937,22.4925586 29.0876027,22.7690306 28.0660639,22.6500895 C27.8617561,22.6263012 27.6610874,22.5718526 27.4697764,22.4989021 C27.2576706,22.637931 27.0434854,22.7780172 26.8261809,22.9196893 C26.6052374,23.0640046 26.336986,23.2416233 26.0307843,23.4467306 L26.0307843,24.2676887 C26.2335324,23.8632889 26.6769791,23.5011792 27.0211311,23.4826773 C27.1692932,23.4747479 27.6839616,23.9584418 29.8050193,23.8395007 C30.8343561,23.7818803 32.8228476,22.6659483 32.7916556,21.3813842 C32.7729404,20.6222755 32.3830401,20.0302131 31.8678518,19.5724219 Z M26.0302644,21.5558312 L26.0302644,22.3921194 C26.2179364,22.2647202 26.4030091,22.1394356 26.5844427,22.0173227 C26.2990357,21.8153871 26.0968074,21.6266672 26.0302644,21.5558312 Z M31.1426373,19.0474951 C30.9450878,18.928554 30.7449389,18.8244144 30.553108,18.7324333 C29.5549632,18.2566688 28.5100304,18.1694453 28.2916862,17.5271633 C28.1378055,17.0741298 28.5724144,16.6549284 29.6329433,16.6707872 C30.6934721,16.6866461 31.6760209,17.3289281 31.9411531,17.5588809 L31.9411531,15.5130937 C31.863173,15.5923878 31.5211005,15.9915013 31.2081405,15.9254229 C30.607694,15.7985524 29.5861552,15.6330921 28.4164543,15.6399642 C27.0751972,15.6478936 25.9210923,16.7019763 25.8821023,18.0346454 C25.8275163,19.8980563 27.2935414,20.4055384 28.1201301,20.6989265 C28.2053883,20.7290582 28.3026034,20.7613045 28.4081364,20.7956653 C29.2009337,20.2712671 29.8278934,19.8673959 30.1949196,19.6522446 C30.4413366,19.5079294 30.764174,19.3007075 31.1426373,19.0474951 Z" id="Shape" fill="#FFFFFF"></path>
                </g>
            </g>
        </g>
    </g>
</svg>